<svg width="239" height="46" viewBox="0 0 239 46" fill="none" xmlns="http://www.w3.org/2000/svg">
<g clip-path="url(#clip0_52_514)">
<path d="M16.2935 2.2537C16.1036 1.19554 16.7255 0.315496 17.6223 0.0745304C18.5993 -0.187389 19.6032 0.252635 19.984 1.18158C20.1366 1.55292 20.3276 1.65885 20.7026 1.67282C24.4839 1.81484 28.2653 1.96966 32.0456 2.13263C32.3973 2.14777 32.629 2.10586 32.8375 1.75081C33.2532 1.04654 34.0812 0.811396 34.8184 1.09427C35.5754 1.38529 36.0401 2.14777 35.8712 2.95215C35.8013 3.28391 35.8991 3.4399 36.1344 3.62732C38.3634 5.40604 40.5866 7.19059 42.8051 8.98211C43.0299 9.16371 43.1917 9.19514 43.4666 9.04614C44.5473 8.45944 45.7445 8.72834 46.4188 9.66892C47.0977 10.6165 46.9533 11.7759 46.0822 12.6792C45.9634 12.8026 45.8924 13.0925 45.9506 13.2497C46.6214 15.068 47.3108 16.8804 48.0259 18.6813C48.0981 18.8617 48.3473 19.0468 48.5441 19.0899C49.4688 19.2924 50.086 20.0398 49.9894 20.9117C49.8881 21.8231 49.1788 22.4564 48.2355 22.4122C47.9153 22.397 47.7452 22.482 47.5834 22.7474C47.0092 23.6915 46.4223 24.6286 45.8155 25.5529C45.6373 25.8241 45.663 26.0022 45.8283 26.2723C46.4991 27.3654 45.9751 28.7238 44.7336 29.0486C44.2876 29.165 44.0919 29.3676 44.0267 29.7948C43.9778 30.1196 43.8975 30.4432 43.7892 30.7528C43.5912 31.3197 43.5295 31.7761 44.0407 32.2964C44.6288 32.8936 44.4437 33.9075 43.8066 34.4861C43.1778 35.0565 42.1506 35.0704 41.5415 34.4302C41.2399 34.1124 40.9907 34.1194 40.6285 34.2183C39.4511 34.5408 38.2667 34.8411 37.0824 35.1356C36.7959 35.2066 36.6724 35.3289 36.5548 35.628C36.379 36.0739 36.0191 36.4441 35.7571 36.8585C35.6499 37.0273 35.53 37.2252 35.5265 37.4114C35.5218 37.7164 35.629 38.0226 35.6511 38.331C35.6977 38.9631 35.7955 39.4555 36.5292 39.7582C37.2885 40.0713 37.4911 41.0899 37.1359 41.8314C36.7796 42.5753 35.9341 42.9478 35.1282 42.7173C34.4329 42.5182 33.57 43.2877 33.6911 43.999C33.8262 44.7964 33.4384 45.5262 32.7059 45.8534C32.0025 46.1677 31.2036 45.9686 30.7191 45.3586C30.2265 44.7393 30.209 43.8965 30.7482 43.2702C30.9928 42.9862 30.9928 42.7732 30.8728 42.4519C29.8352 39.6942 28.8092 36.933 27.7948 34.1659C27.6679 33.8202 27.5317 33.6479 27.1136 33.6421C26.3566 33.6305 25.7277 33.2801 25.312 32.6305C25.1489 32.3756 24.9859 32.3244 24.6971 32.3965C23.1924 32.7714 21.6785 33.1124 20.1762 33.5012C19.9945 33.5478 19.7942 33.7841 19.7278 33.975C19.4355 34.8213 18.6168 35.3463 17.7795 35.1752C16.9072 34.9959 16.3214 34.2369 16.4437 33.3453C16.4949 32.9739 16.382 32.7795 16.1025 32.5805C15.4398 32.1067 14.8063 31.5921 14.1367 31.13C13.9934 31.0311 13.7058 30.9985 13.5544 31.0741C12.0416 31.8273 10.5568 30.9973 10.3984 29.307C10.3832 29.1452 10.2318 28.9159 10.0874 28.8577C8.45237 28.1977 6.80798 27.5563 5.15661 26.9358C5.00987 26.8811 4.75483 26.9533 4.61741 27.0569C3.80803 27.6668 2.75641 27.5795 2.17878 26.8264C1.5767 26.0429 1.73741 25.0651 2.53165 24.4051C2.68537 24.277 2.81348 23.993 2.79135 23.7986C2.56542 21.8138 2.2999 19.8349 2.06465 17.8513C2.02739 17.5393 1.93073 17.3973 1.61163 17.303C0.422599 16.9514 -0.214426 15.8374 0.0662376 14.6803C0.338749 13.5558 1.37173 12.9156 2.60968 13.0622C2.7832 13.0832 3.05571 12.9703 3.15121 12.8306C3.71835 11.9983 4.26221 11.1473 4.77579 10.2801C4.87595 10.1113 4.88293 9.80861 4.80141 9.62585C4.46485 8.8657 4.55685 8.10556 5.10537 7.58754C5.67718 7.0474 6.47608 6.98687 7.20627 7.38033C7.36465 7.46531 7.64881 7.47695 7.8002 7.39197C10.4869 5.87866 13.1654 4.35022 15.8346 2.80664C16.0291 2.69372 16.1421 2.43995 16.2935 2.25253V2.2537ZM13.7221 11.0065C14.776 8.60961 15.8148 6.25582 16.8408 3.89622C16.8886 3.78563 16.8234 3.62616 16.8117 3.48879C16.672 3.50625 16.5078 3.48181 16.3948 3.54583C13.6627 5.0929 10.9352 6.64812 8.21013 8.208C7.89453 8.38843 7.79321 9.30573 8.07038 9.50828C9.0859 10.2498 10.1131 10.975 11.1519 11.7177C11.8786 11.0309 12.7252 10.8516 13.7221 11.0065ZM3.92332 16.5615C3.89537 16.5952 3.86742 16.629 3.83831 16.6628C3.96175 16.8455 4.07937 17.0329 4.20864 17.2122C6.58322 20.467 8.95779 23.7229 11.344 26.9696C11.4593 27.1267 11.6829 27.2035 11.8564 27.3188C11.9496 27.1162 12.1138 26.916 12.1243 26.71C12.214 24.7555 12.2675 22.7998 12.3572 20.8453C12.3735 20.4844 12.2303 20.3343 11.931 20.1981C9.41314 19.0456 6.90231 17.8792 4.38682 16.721C4.23892 16.6534 4.07821 16.615 3.92332 16.5638V16.5615ZM25.1361 6.94263C26.2215 6.14873 27.2824 6.05677 28.4039 6.70167C28.525 6.77151 28.808 6.70749 28.9315 6.60389C30.0774 5.64701 31.2082 4.67034 32.3344 3.68902C32.466 3.57377 32.5417 3.3945 32.6441 3.24434C32.4625 3.17449 32.2831 3.05226 32.0991 3.04411C28.2222 2.8695 24.3454 2.70653 20.4673 2.55054C20.3381 2.54588 20.2041 2.64017 20.0737 2.6879C20.1284 2.81479 20.1471 2.98707 20.2426 3.06274C21.8625 4.35837 23.4906 5.64119 25.1384 6.9438L25.1361 6.94263ZM17.4953 25.3235C16.545 26.1896 15.6157 27.0382 14.6852 27.8845C14.4732 28.0766 14.2531 28.2116 14.3952 28.6004C14.528 28.9636 14.6514 29.1569 15.0753 29.2128C18.2639 29.633 21.4467 30.0905 24.6342 30.5165C24.7902 30.5375 25.0686 30.4211 25.1152 30.3C25.1769 30.1394 25.1373 29.8483 25.022 29.7238C24.2079 28.8402 23.3729 27.9753 22.5251 27.1244C21.9673 26.5656 21.3769 26.0383 20.7887 25.4854C19.722 26.114 18.6273 26.0709 17.4953 25.3224V25.3235ZM29.5906 18.9048C27.3977 19.8989 25.1792 20.9035 22.963 21.9116C22.0174 22.3423 22.0185 22.347 22.1268 23.475C24.3803 24.1443 26.6501 24.8195 28.9466 25.5017C29.6407 23.6554 30.3045 21.8907 30.9427 20.1934C30.4559 19.729 30.039 19.332 29.5906 18.9036V18.9048ZM28.4575 33.3779C29.5592 36.3498 30.6527 39.3135 31.7684 42.268C31.8301 42.4333 32.0677 42.5462 32.2424 42.6521C32.9574 43.084 33.3767 42.559 33.7924 42.126C33.9205 41.9932 33.9986 41.7313 33.9718 41.5462C33.8926 40.9991 33.8821 40.4066 34.3223 40.0876C34.9617 39.6243 34.9093 39.0935 34.7648 38.4707C34.695 38.1692 34.7101 37.8456 34.6134 37.5558C34.5529 37.3742 34.3864 37.16 34.2152 37.0936C33.3243 36.749 32.8887 36.1414 32.8503 35.2043C32.8421 35.0076 32.6907 34.7363 32.5242 34.642C31.596 34.117 30.6271 33.6642 29.7048 33.1311C29.2028 32.8412 28.8232 32.8261 28.4575 33.379V33.3779ZM16.7348 21.425C17.3695 21.0397 17.9134 20.7254 18.4363 20.3797C18.5493 20.304 18.6541 20.1108 18.6482 19.9769C18.5865 18.4485 18.5132 16.92 18.4118 15.3939C18.4014 15.2426 18.2127 15.0074 18.0695 14.9748C17.3719 14.8188 16.6638 14.6989 15.9534 14.614C15.7985 14.5953 15.5458 14.7234 15.4678 14.8596C15.0707 15.551 14.5105 16.0039 13.75 16.2483C13.6033 16.2949 13.4251 16.5161 13.4146 16.6662C13.3517 17.6126 13.3203 18.5614 13.311 19.5101C13.3098 19.6603 13.4333 19.8884 13.5625 19.9513C14.6572 20.4809 15.7659 20.9803 16.7348 21.4262V21.425ZM3.11277 17.2448C3.06386 17.2623 3.01379 17.2797 2.96487 17.2972C2.95556 17.3845 2.92761 17.473 2.93809 17.5579C3.18731 19.6358 3.4342 21.7149 3.70787 23.7904C3.72884 23.9464 3.92448 24.135 4.08403 24.2084C4.6803 24.4784 5.0879 24.9045 5.14729 25.554C5.18107 25.9196 5.34993 26.036 5.64457 26.1489C7.21908 26.7507 8.7866 27.3712 10.3588 27.98C10.5044 28.037 10.6627 28.0603 10.8153 28.0987C10.8537 28.0487 10.8922 27.9974 10.9306 27.9474C8.32426 24.3806 5.71794 20.8139 3.11161 17.246L3.11277 17.2448ZM36.3836 26.2688C36.4174 26.3072 36.4512 26.3456 36.4849 26.384C36.6491 26.3212 36.8227 26.2746 36.9775 26.1931C40.0637 24.5774 43.1475 22.9593 46.229 21.3331C46.3838 21.2516 46.498 21.0944 46.6319 20.9722C46.4595 20.8791 46.2965 20.7429 46.1125 20.6975C44.3272 20.2656 42.5337 19.8605 40.7508 19.417C40.3874 19.3262 40.2395 19.4449 40.073 19.7394C38.9189 21.7754 37.745 23.8021 36.5816 25.8334C36.5024 25.9708 36.4488 26.1233 36.3836 26.2688ZM24.1777 9.39071C24.2871 8.84475 24.4013 8.37679 24.4618 7.90301C24.4805 7.754 24.4001 7.52701 24.2848 7.43504C22.7767 6.21974 21.2464 5.03121 19.7395 3.81241C19.4553 3.58192 19.2317 3.64944 19.0302 3.83802C18.8893 3.96956 18.7414 4.1919 18.7496 4.36651C18.8346 6.41763 18.9464 8.46875 19.0547 10.5187C19.064 10.6991 19.0989 10.8784 19.1269 11.1031C20.8912 10.5047 22.574 9.93317 24.1777 9.38954V9.39071ZM33.9461 9.21493C34.0253 9.26382 34.0556 9.29758 34.0906 9.30107C36.7854 9.6177 39.4791 9.93433 42.1751 10.2405C42.2822 10.2521 42.401 10.1532 42.5139 10.1066C42.4511 9.98323 42.4173 9.82491 42.3206 9.74342C41.7104 9.23588 41.085 8.7458 40.4643 8.24874C38.8164 6.9275 37.1697 5.60394 35.5195 4.28619C35.1596 3.99866 34.5331 4.15698 34.4807 4.57256C34.2827 6.12545 34.1197 7.68299 33.9461 9.21493ZM35.6534 14.9993C37.7066 13.9597 39.8669 12.869 42.0213 11.7654C42.1669 11.6909 42.2589 11.514 42.3765 11.3848C42.2077 11.2952 42.0458 11.1473 41.8688 11.1264C39.9263 10.8854 37.9802 10.6631 36.0354 10.4395C35.3134 10.3569 34.5913 10.2824 33.8425 10.2009C33.7074 11.4011 33.5816 12.5116 33.4733 13.472C34.2454 14.0133 34.9174 14.4847 35.6534 15.0004V14.9993ZM40.7892 18.5125C42.7492 18.9758 44.6114 19.4205 46.4758 19.8535C46.9801 19.9699 47.3586 19.5287 47.1758 19.0433C46.4875 17.2157 45.7946 15.3892 45.0853 13.5698C45.0294 13.4266 44.8186 13.224 44.7138 13.2427C44.3819 13.3009 43.979 12.9435 43.7146 13.408C42.7573 15.0854 41.7942 16.7582 40.788 18.5125H40.7892ZM21.0158 20.8046C21.7949 21.6509 21.4362 21.5892 22.4389 21.1573C23.2041 20.8267 23.9587 20.474 24.718 20.1294C26.2308 19.4414 27.7436 18.7534 29.2459 18.0701C29.211 17.7488 29.2121 17.473 29.1399 17.218C29.098 17.0702 28.9524 16.8665 28.8255 16.8432C27.2254 16.5452 25.6217 16.2658 24.0135 16.0097C23.8574 15.9853 23.5849 16.0993 23.5115 16.2309C22.6614 17.75 21.8404 19.2854 21.017 20.8046H21.0158ZM33.7971 20.3261C34.1569 21.9733 34.4982 23.5797 34.8708 25.1804C34.9151 25.3724 35.1002 25.5785 35.2761 25.6844C35.601 25.8788 35.6965 25.5668 35.8188 25.355C36.6852 23.8428 37.5517 22.3295 38.4193 20.8174C38.7326 20.2714 39.047 19.7266 39.401 19.1108C38.2516 18.8373 37.2035 18.58 36.1495 18.3472C36.0424 18.3239 35.8363 18.4147 35.7885 18.509C35.3599 19.3576 34.7031 19.9559 33.7971 20.3273V20.3261ZM12.4364 16.2728C11.613 16.0202 10.962 15.5208 10.5649 14.6989C10.5113 14.5872 10.2528 14.4987 10.1061 14.5197C8.34289 14.763 6.58089 15.0237 4.82237 15.2949C4.65817 15.3206 4.5091 15.4474 4.35189 15.5278C4.47882 15.6477 4.58597 15.8118 4.7362 15.8816C7.12009 16.9957 9.5098 18.0969 11.8995 19.1993C12.0451 19.2668 12.2011 19.3122 12.4376 19.3983V16.2716L12.4364 16.2728ZM36.1484 17.4078C37.3805 17.6999 38.6173 17.9933 39.8704 18.2913C40.5272 17.1482 41.163 16.0423 41.7989 14.9352C42.1844 14.2636 42.5768 13.5965 42.9437 12.9156C42.9984 12.8143 42.974 12.6269 42.9134 12.5221C42.882 12.4685 42.6758 12.4779 42.5687 12.5163C42.3707 12.5884 42.1879 12.7037 41.998 12.7991C39.9798 13.8201 37.9616 14.8398 35.9597 15.8514C36.0226 16.3706 36.0808 16.8467 36.1484 17.4066V17.4078ZM40.7811 32.5385C40.696 32.4198 40.6739 32.3639 40.6332 32.3348C39.3055 31.3908 37.9814 30.4432 36.641 29.5201C36.5129 29.4316 36.2392 29.4351 36.0948 29.5119C35.1352 30.0183 34.3782 29.9554 33.5083 29.2733C33.3965 29.186 33.1892 29.0963 33.0844 29.1417C31.9489 29.6388 30.8227 30.1592 29.7013 30.6888C29.6116 30.7307 29.5382 30.8914 29.5347 30.9985C29.5324 31.0602 29.678 31.1556 29.7735 31.1847C29.919 31.2301 30.0786 31.2324 30.2323 31.2511C32.6174 31.5467 35.0036 31.8448 37.3886 32.1369C38.4938 32.272 39.6002 32.3977 40.7799 32.5374L40.7811 32.5385ZM10.5416 12.3906C9.59132 11.7107 8.61541 11.0123 7.63832 10.3162C7.52187 10.2335 5.75171 10.4826 5.6632 10.592C5.6271 10.6363 5.59915 10.6887 5.56771 10.7376C5.02734 11.5873 4.51376 12.4546 3.93497 13.2776C3.67876 13.6408 3.91284 13.8212 4.04094 14.089C4.18302 14.3858 4.35887 14.4498 4.67913 14.3998C6.19075 14.1635 7.70121 13.9085 9.22215 13.7572C10.0735 13.6734 10.6115 13.4219 10.5416 12.3917V12.3906ZM23.1691 14.9329C23.8201 13.7293 24.4152 12.5559 25.086 11.4267C25.3853 10.9226 24.9311 10.7981 24.7867 10.5094C24.6342 10.2067 24.4211 10.2568 24.1555 10.3499C23.1156 10.7131 22.0651 11.0507 21.024 11.4104C20.4056 11.6234 19.545 11.6956 19.2527 12.1356C18.958 12.5791 19.2294 13.401 19.2562 14.0564C19.2585 14.1111 19.2888 14.1646 19.3214 14.2636C20.5791 14.4824 21.852 14.7036 23.1703 14.9329H23.1691ZM29.1865 15.9818C29.5196 15.4952 29.8387 15.0621 30.1135 14.6023C30.1741 14.501 30.1217 14.274 30.0425 14.1588C29.4637 13.3102 28.8709 12.4697 28.263 11.6409C28.1826 11.5315 27.994 11.4325 27.8612 11.4395C27.2731 11.4744 26.6885 11.5501 25.9839 11.6234C25.4156 12.6758 24.7774 13.855 24.1066 15.0971C25.8838 15.4067 27.5596 15.6989 29.1854 15.9818H29.1865ZM16.7104 24.8125C16.6242 23.9523 16.5706 23.2538 16.4728 22.56C16.4519 22.4133 16.3016 22.2341 16.163 22.1654C15.5225 21.8453 14.8657 21.5554 14.2135 21.2597C13.9096 21.1224 13.5998 20.9966 13.2528 20.8488C13.1666 22.9383 13.0769 24.9301 13.0152 26.9242C13.0105 27.079 13.1689 27.3304 13.3063 27.3782C13.4962 27.4433 13.8094 27.4387 13.9457 27.32C14.9239 26.469 15.8707 25.582 16.7116 24.8125H16.7104ZM28.6205 26.3468C26.4043 25.6832 24.272 25.0407 22.1327 24.4202C22.0034 24.383 21.739 24.4924 21.6855 24.6041C21.6307 24.7182 21.7111 24.9662 21.8159 25.0756C23.0981 26.4259 24.3931 27.7635 25.6916 29.0975C25.7883 29.1965 25.949 29.3187 26.062 29.3036C26.5348 29.2372 27.0029 29.1313 27.4676 29.0172C27.5561 28.9962 27.6539 28.888 27.6889 28.7983C27.9975 28.0079 28.2944 27.2117 28.6205 26.3479V26.3468ZM29.8096 25.7577C30.5549 25.9789 31.2641 26.1198 31.9116 26.3992C32.6896 26.7344 33.3278 26.7309 33.8402 25.9929C33.9263 25.8683 34.0393 25.6961 34.0137 25.5715C33.6853 23.9814 33.3382 22.3947 32.9854 20.8092C32.8689 20.2842 32.3949 20.6113 32.1049 20.4903C32.0199 20.4553 31.7626 20.6195 31.7148 20.7429C31.0766 22.3807 30.4629 24.0268 29.8096 25.7566V25.7577ZM37.0649 28.1011C36.8424 28.4538 36.9612 28.6435 37.2512 28.8437C38.6045 29.7785 39.9402 30.7365 41.2865 31.6806C41.4064 31.7644 41.6021 31.8901 41.6883 31.8471C42.1634 31.6108 42.8622 31.6143 42.8575 30.8099C42.8563 30.5666 42.96 30.3186 43.0403 30.0812C43.2558 29.4421 43.4246 28.8251 42.7061 28.363C42.6036 28.2978 42.5803 28.1197 42.4872 28.0277C42.3905 27.9334 42.2508 27.8147 42.1343 27.8205C40.4352 27.9032 38.7372 28.0056 37.0661 28.1011H37.0649ZM17.8319 4.24778C17.7876 4.23148 17.7422 4.21518 17.698 4.19888C16.651 6.58177 15.604 8.96465 14.5676 11.3254C14.8063 11.578 15.0381 11.7666 15.1941 12.0052C15.3793 12.2893 15.561 12.3277 15.8696 12.2101C16.5217 11.9633 17.1983 11.7806 17.8447 11.521C17.9996 11.4593 18.1824 11.1997 18.1754 11.0391C18.0788 8.77491 17.9518 6.51076 17.8319 4.24778ZM46.9056 22.1479C46.8811 22.113 46.8578 22.0781 46.8334 22.042C43.6448 23.7148 40.455 25.3876 37.1674 27.1116C37.3456 27.1512 37.3968 27.1744 37.4457 27.1721C38.9748 27.0918 40.5051 27.0196 42.033 26.9125C42.1832 26.902 42.3754 26.7111 42.4499 26.5563C42.8703 25.6879 43.5423 25.3026 44.51 25.3771C44.6638 25.3887 44.8978 25.3061 44.9747 25.1885C45.6339 24.1851 46.2651 23.1642 46.9044 22.1479H46.9056ZM33.0424 9.19398C33.2218 7.60267 33.393 6.12312 33.5502 4.64357C33.5665 4.48991 33.4943 4.32693 33.464 4.16862C33.2986 4.22682 33.0983 4.24312 32.9726 4.34905C31.978 5.18254 30.9974 6.03232 30.0145 6.87977C29.4812 7.33998 29.3305 7.89369 29.5627 8.54092C29.6011 8.64569 29.7176 8.78305 29.8131 8.79586C30.8647 8.93788 31.9186 9.05778 33.0436 9.19281L33.0424 9.19398ZM30.9613 13.8899C31.4411 13.7747 31.8732 13.6815 32.2983 13.5616C32.4031 13.5314 32.5521 13.4208 32.5626 13.3323C32.6989 12.266 32.8142 11.1962 32.9388 10.0915C31.8371 9.96111 30.8227 9.83306 29.8049 9.73295C29.678 9.72014 29.487 9.8284 29.409 9.94016C29.2005 10.2335 29.0375 10.5594 28.8476 10.8866C29.5487 11.8818 30.2498 12.8783 30.9625 13.8899H30.9613ZM14.4662 30.0276C14.4499 30.0835 14.4348 30.1382 14.4185 30.1941C15.236 30.8076 16.0477 31.4303 16.8804 32.0217C16.9899 32.0997 17.2298 32.0613 17.38 32.0031C18.1125 31.7167 18.774 31.804 19.2911 32.3779C19.5461 32.6608 19.7732 32.6794 20.1016 32.5967C21.4712 32.2533 22.8454 31.9297 24.2161 31.5945C24.3034 31.5735 24.3803 31.5072 24.5422 31.4187C21.1137 30.9461 17.7888 30.4874 14.4639 30.0288L14.4662 30.0276ZM19.3074 15.1739C19.3878 16.778 19.4541 18.3053 19.5555 19.8291C19.5671 20.0013 19.7336 20.2202 19.8897 20.3157C20.2099 20.5101 20.3136 20.2144 20.4324 19.9932C21.1148 18.7313 21.8008 17.4706 22.4809 16.2076C22.5484 16.0819 22.5892 15.9422 22.6602 15.7641C21.5376 15.5662 20.472 15.3788 19.3062 15.1739H19.3074ZM39.9693 33.4652C39.9565 33.4256 39.9449 33.386 39.9321 33.3476C36.613 32.9425 33.294 32.5362 29.9749 32.1311C29.9633 32.1707 29.9528 32.2114 29.9412 32.251C31.0603 32.8389 32.1806 33.4267 33.2847 34.0076C34.5168 33.1264 35.247 33.1823 36.2741 34.1939C36.3545 34.273 36.5105 34.3475 36.6072 34.3231C37.7299 34.0484 38.8479 33.755 39.9682 33.4663L39.9693 33.4652ZM29.4916 26.6052C29.1329 27.5516 28.7941 28.448 28.4575 29.3385C28.7044 29.562 28.9175 29.7529 29.1388 29.9531C30.3057 29.4141 31.4656 28.8891 32.6104 28.3362C32.7396 28.2745 32.8701 28.0533 32.8619 27.9136C32.8538 27.7763 32.6954 27.5737 32.5603 27.5295C31.5704 27.2105 30.57 26.9242 29.4916 26.604V26.6052ZM18.243 12.358C17.4452 12.6269 16.7465 12.8527 16.0559 13.103C15.9371 13.146 15.8253 13.2776 15.7694 13.3952C15.7438 13.4499 15.8486 13.6385 15.9161 13.6524C16.7011 13.8061 17.4907 13.9388 18.3501 14.089C18.3105 13.4603 18.2791 12.9458 18.243 12.358Z" fill="url(#paint0_linear_52_514)"/>
</g>
<path d="M66.7102 18.4901V15.9545H78.6562V18.4901H74.2031V30.5H71.1634V18.4901H66.7102ZM83.5923 24.1932V30.5H80.5668V15.9545H83.5071V21.5156H83.6349C83.8812 20.8717 84.2789 20.3674 84.8281 20.0028C85.3774 19.6335 86.0663 19.4489 86.8949 19.4489C87.6525 19.4489 88.313 19.6146 88.8764 19.946C89.4446 20.2727 89.8849 20.7438 90.1974 21.3594C90.5147 21.9702 90.6709 22.7017 90.6662 23.554V30.5H87.6406V24.0938C87.6454 23.4214 87.4749 22.8982 87.1293 22.5241C86.7884 22.1501 86.3101 21.9631 85.6946 21.9631C85.2827 21.9631 84.9181 22.0507 84.6009 22.2259C84.2884 22.401 84.0421 22.6567 83.8622 22.9929C83.687 23.3243 83.5971 23.7244 83.5923 24.1932ZM93.0472 30.5V19.5909H96.0728V30.5H93.0472ZM94.5671 18.1847C94.1173 18.1847 93.7314 18.0355 93.4094 17.7372C93.0922 17.4342 92.9336 17.072 92.9336 16.6506C92.9336 16.2339 93.0922 15.8764 93.4094 15.5781C93.7314 15.2751 94.1173 15.1236 94.5671 15.1236C95.0169 15.1236 95.4004 15.2751 95.7177 15.5781C96.0397 15.8764 96.2006 16.2339 96.2006 16.6506C96.2006 17.072 96.0397 17.4342 95.7177 17.7372C95.4004 18.0355 95.0169 18.1847 94.5671 18.1847ZM101.522 24.1932V30.5H98.4964V19.5909H101.38V21.5156H101.508C101.749 20.8812 102.154 20.3793 102.722 20.0099C103.29 19.6359 103.979 19.4489 104.789 19.4489C105.547 19.4489 106.207 19.6146 106.771 19.946C107.334 20.2775 107.772 20.7509 108.085 21.3665C108.397 21.9773 108.553 22.7064 108.553 23.554V30.5H105.528V24.0938C105.532 23.4261 105.362 22.9053 105.016 22.5312C104.671 22.1525 104.195 21.9631 103.589 21.9631C103.182 21.9631 102.822 22.0507 102.509 22.2259C102.201 22.401 101.96 22.6567 101.785 22.9929C101.614 23.3243 101.527 23.7244 101.522 24.1932ZM113.679 27.3608L113.686 23.7315H114.127L117.621 19.5909H121.094L116.4 25.0739H115.682L113.679 27.3608ZM110.938 30.5V15.9545H113.963V30.5H110.938ZM117.756 30.5L114.546 25.7486L116.563 23.6108L121.3 30.5H117.756ZM127.264 30.5V15.9545H133.088C134.158 15.9545 135.051 16.1132 135.766 16.4304C136.481 16.7476 137.018 17.188 137.378 17.7514C137.738 18.3101 137.918 18.9541 137.918 19.6832C137.918 20.2514 137.804 20.7509 137.577 21.1818C137.349 21.608 137.037 21.9583 136.639 22.233C136.246 22.5028 135.796 22.6946 135.29 22.8082V22.9503C135.844 22.974 136.362 23.1302 136.845 23.419C137.333 23.7079 137.728 24.1127 138.031 24.6335C138.334 25.1496 138.486 25.7652 138.486 26.4801C138.486 27.2519 138.294 27.9408 137.911 28.5469C137.532 29.1482 136.971 29.6241 136.227 29.9744C135.484 30.3248 134.568 30.5 133.479 30.5H127.264ZM130.339 27.9858H132.847C133.704 27.9858 134.329 27.8224 134.722 27.4957C135.115 27.1643 135.311 26.724 135.311 26.1747C135.311 25.7723 135.214 25.4171 135.02 25.1094C134.826 24.8016 134.549 24.5601 134.189 24.3849C133.834 24.2098 133.41 24.1222 132.918 24.1222H130.339V27.9858ZM130.339 22.0412H132.619C133.041 22.0412 133.415 21.9678 133.741 21.821C134.073 21.6695 134.333 21.4564 134.523 21.1818C134.717 20.9072 134.814 20.5781 134.814 20.1946C134.814 19.669 134.627 19.2453 134.253 18.9233C133.884 18.6013 133.358 18.4403 132.676 18.4403H130.339V22.0412ZM145.359 30.7131C144.256 30.7131 143.302 30.4787 142.497 30.0099C141.697 29.5365 141.079 28.8783 140.643 28.0355C140.208 27.188 139.99 26.2055 139.99 25.0881C139.99 23.9612 140.208 22.9763 140.643 22.1335C141.079 21.286 141.697 20.6278 142.497 20.1591C143.302 19.6856 144.256 19.4489 145.359 19.4489C146.462 19.4489 147.414 19.6856 148.214 20.1591C149.019 20.6278 149.639 21.286 150.075 22.1335C150.511 22.9763 150.728 23.9612 150.728 25.0881C150.728 26.2055 150.511 27.188 150.075 28.0355C149.639 28.8783 149.019 29.5365 148.214 30.0099C147.414 30.4787 146.462 30.7131 145.359 30.7131ZM145.373 28.3693C145.875 28.3693 146.294 28.2273 146.63 27.9432C146.967 27.6544 147.22 27.2614 147.39 26.7642C147.565 26.267 147.653 25.7012 147.653 25.0668C147.653 24.4323 147.565 23.8665 147.39 23.3693C147.22 22.8722 146.967 22.4792 146.63 22.1903C146.294 21.9015 145.875 21.7571 145.373 21.7571C144.867 21.7571 144.44 21.9015 144.095 22.1903C143.754 22.4792 143.496 22.8722 143.321 23.3693C143.15 23.8665 143.065 24.4323 143.065 25.0668C143.065 25.7012 143.15 26.267 143.321 26.7642C143.496 27.2614 143.754 27.6544 144.095 27.9432C144.44 28.2273 144.867 28.3693 145.373 28.3693ZM158.498 19.5909V21.8636H151.929V19.5909H158.498ZM153.42 16.9773H156.446V27.1477C156.446 27.4271 156.488 27.6449 156.574 27.8011C156.659 27.9527 156.777 28.0592 156.929 28.1207C157.085 28.1823 157.265 28.2131 157.468 28.2131C157.61 28.2131 157.752 28.2012 157.895 28.1776C158.037 28.1491 158.145 28.1278 158.221 28.1136L158.697 30.3651C158.546 30.4124 158.333 30.4669 158.058 30.5284C157.783 30.5947 157.449 30.6349 157.056 30.6491C156.327 30.6776 155.688 30.5805 155.139 30.358C154.594 30.1354 154.171 29.7898 153.868 29.321C153.565 28.8523 153.415 28.2604 153.42 27.5455V16.9773ZM167.662 30.5H164.366L169.388 15.9545H173.351L178.365 30.5H175.07L171.426 19.2784H171.312L167.662 30.5ZM167.456 24.7827H175.24V27.1832H167.456V24.7827ZM184.466 34.8182C183.486 34.8182 182.645 34.6832 181.945 34.4134C181.249 34.1482 180.695 33.786 180.283 33.3267C179.871 32.8674 179.603 32.3513 179.48 31.7784L182.278 31.402C182.364 31.6198 182.499 31.8234 182.683 32.0128C182.868 32.2022 183.112 32.3537 183.415 32.4673C183.723 32.5857 184.097 32.6449 184.537 32.6449C185.195 32.6449 185.737 32.4839 186.163 32.1619C186.594 31.8447 186.81 31.312 186.81 30.5639V28.5682H186.682C186.549 28.8712 186.35 29.1577 186.085 29.4276C185.82 29.6974 185.479 29.9176 185.062 30.0881C184.646 30.2585 184.149 30.3438 183.571 30.3438C182.752 30.3438 182.006 30.1544 181.334 29.7756C180.666 29.392 180.134 28.8073 179.736 28.0213C179.343 27.2306 179.146 26.2315 179.146 25.0241C179.146 23.7884 179.348 22.7562 179.75 21.9276C180.152 21.099 180.688 20.4787 181.355 20.0668C182.027 19.6548 182.764 19.4489 183.564 19.4489C184.175 19.4489 184.686 19.553 185.098 19.7614C185.51 19.965 185.841 20.2206 186.092 20.5284C186.348 20.8314 186.545 21.1297 186.682 21.4233H186.795V19.5909H189.8V30.6065C189.8 31.5346 189.572 32.3111 189.118 32.9361C188.663 33.5611 188.034 34.0298 187.229 34.3423C186.429 34.6596 185.508 34.8182 184.466 34.8182ZM184.53 28.071C185.018 28.071 185.429 27.9503 185.766 27.7088C186.107 27.4626 186.367 27.1122 186.547 26.6577C186.732 26.1984 186.824 25.6491 186.824 25.0099C186.824 24.3707 186.734 23.8168 186.554 23.348C186.374 22.8745 186.114 22.5076 185.773 22.2472C185.432 21.9867 185.018 21.8565 184.53 21.8565C184.033 21.8565 183.614 21.9915 183.273 22.2614C182.932 22.5265 182.674 22.8958 182.499 23.3693C182.323 23.8428 182.236 24.3897 182.236 25.0099C182.236 25.6397 182.323 26.1842 182.499 26.6435C182.679 27.098 182.937 27.4508 183.273 27.7017C183.614 27.9479 184.033 28.071 184.53 28.071ZM197.179 30.7131C196.057 30.7131 195.091 30.4858 194.281 30.0312C193.476 29.572 192.856 28.9233 192.42 28.0852C191.985 27.2424 191.767 26.2457 191.767 25.0952C191.767 23.973 191.985 22.9882 192.42 22.1406C192.856 21.2931 193.469 20.6326 194.26 20.1591C195.055 19.6856 195.988 19.4489 197.058 19.4489C197.778 19.4489 198.448 19.5649 199.068 19.7969C199.693 20.0241 200.238 20.3674 200.702 20.8267C201.17 21.286 201.535 21.8636 201.795 22.5597C202.056 23.2509 202.186 24.0606 202.186 24.9886V25.8196H192.974V23.9446H199.338C199.338 23.509 199.243 23.1231 199.054 22.7869C198.865 22.4508 198.602 22.188 198.266 21.9986C197.934 21.8045 197.548 21.7074 197.108 21.7074C196.649 21.7074 196.241 21.8139 195.886 22.027C195.536 22.2353 195.261 22.517 195.062 22.8722C194.864 23.2225 194.762 23.6132 194.757 24.044V25.8267C194.757 26.3665 194.857 26.8329 195.055 27.2259C195.259 27.6188 195.545 27.9219 195.915 28.1349C196.284 28.348 196.722 28.4545 197.229 28.4545C197.565 28.4545 197.873 28.4072 198.152 28.3125C198.431 28.2178 198.67 28.0758 198.869 27.8864C199.068 27.697 199.22 27.465 199.324 27.1903L202.122 27.375C201.98 28.0473 201.689 28.6345 201.249 29.1364C200.813 29.6335 200.25 30.0218 199.558 30.3011C198.872 30.5758 198.079 30.7131 197.179 30.7131ZM207.186 24.1932V30.5H204.161V19.5909H207.044V21.5156H207.172C207.413 20.8812 207.818 20.3793 208.386 20.0099C208.955 19.6359 209.643 19.4489 210.453 19.4489C211.211 19.4489 211.871 19.6146 212.435 19.946C212.998 20.2775 213.436 20.7509 213.749 21.3665C214.061 21.9773 214.217 22.7064 214.217 23.554V30.5H211.192V24.0938C211.196 23.4261 211.026 22.9053 210.68 22.5312C210.335 22.1525 209.859 21.9631 209.253 21.9631C208.846 21.9631 208.486 22.0507 208.173 22.2259C207.866 22.401 207.624 22.6567 207.449 22.9929C207.278 23.3243 207.191 23.7244 207.186 24.1932ZM221.531 30.7131C220.413 30.7131 219.452 30.4763 218.647 30.0028C217.847 29.5246 217.232 28.8617 216.801 28.0142C216.375 27.1667 216.162 26.1913 216.162 25.0881C216.162 23.9706 216.377 22.9905 216.808 22.1477C217.243 21.3002 217.861 20.6397 218.662 20.1662C219.462 19.688 220.413 19.4489 221.517 19.4489C222.468 19.4489 223.302 19.6217 224.017 19.9673C224.732 20.313 225.297 20.7983 225.714 21.4233C226.131 22.0483 226.36 22.7822 226.403 23.625H223.548C223.467 23.0805 223.254 22.6425 222.909 22.3111C222.568 21.9749 222.12 21.8068 221.566 21.8068C221.098 21.8068 220.688 21.9347 220.338 22.1903C219.992 22.4413 219.722 22.8082 219.528 23.2912C219.334 23.7741 219.237 24.3589 219.237 25.0455C219.237 25.7415 219.332 26.3333 219.521 26.821C219.715 27.3087 219.987 27.6804 220.338 27.9361C220.688 28.1918 221.098 28.3196 221.566 28.3196C221.912 28.3196 222.222 28.2486 222.497 28.1065C222.776 27.9645 223.006 27.7585 223.186 27.4886C223.37 27.214 223.491 26.8849 223.548 26.5014H226.403C226.356 27.3348 226.128 28.0687 225.721 28.7031C225.319 29.3329 224.762 29.8253 224.052 30.1804C223.342 30.5355 222.502 30.7131 221.531 30.7131ZM230.208 34.5909C229.825 34.5909 229.465 34.5601 229.129 34.4986C228.797 34.4418 228.522 34.3684 228.305 34.2784L228.987 32.0199C229.342 32.1288 229.661 32.188 229.945 32.1974C230.234 32.2069 230.483 32.1406 230.691 31.9986C230.904 31.8565 231.077 31.6151 231.21 31.2741L231.387 30.8125L227.474 19.5909H230.656L232.914 27.6023H233.028L235.308 19.5909H238.511L234.271 31.679C234.067 32.2661 233.79 32.7775 233.44 33.2131C233.094 33.6534 232.656 33.992 232.126 34.2287C231.595 34.4702 230.956 34.5909 230.208 34.5909Z" fill="#EEEAF5"/>
<defs>
<linearGradient id="paint0_linear_52_514" x1="24.9999" y1="-0.000213623" x2="24.9999" y2="46.0008" gradientUnits="userSpaceOnUse">
<stop stop-color="#AF77F4"/>
<stop offset="1" stop-color="#620CCF"/>
</linearGradient>
<clipPath id="clip0_52_514">
<rect width="50" height="46" fill="white"/>
</clipPath>
</defs>
</svg>
